<svg width="59" height="57" viewBox="0 0 59 57" fill="none" xmlns="http://www.w3.org/2000/svg">
<path d="M28.8093 44.7033V44.6771C28.8093 44.6859 28.8093 44.6946 28.8093 44.7033Z" fill="white" stroke="#1D1D1B" stroke-miterlimit="10"/>
<path d="M29.5 57C45.7924 57 59 44.2401 59 28.5C59 12.7599 45.7924 0 29.5 0C13.2076 0 0 12.7599 0 28.5C0 44.2401 13.2076 57 29.5 57Z" fill="#FAB71D"/>
<path d="M29.5001 56.5866C45.5561 56.5866 58.5721 44.0118 58.5721 28.5C58.5721 12.9882 45.5561 0.413414 29.5001 0.413414C13.444 0.413414 0.427979 12.9882 0.427979 28.5C0.427979 44.0118 13.444 56.5866 29.5001 56.5866Z" fill="url(#paint0_radial_368_1539)"/>
<path d="M29.6377 16.7189C30.8317 16.7189 31.7996 15.7838 31.7996 14.6303C31.7996 13.4768 30.8317 12.5417 29.6377 12.5417C28.4437 12.5417 27.4758 13.4768 27.4758 14.6303C27.4758 15.7838 28.4437 16.7189 29.6377 16.7189Z" fill="#333333"/>
<path d="M30.6516 43.3188V25.9585C30.6516 23.3869 32.2673 21.0732 34.7347 20.1095L41.091 17.6284C41.8824 17.3411 43.4648 16.65 44.8592 15.1078C46.3566 13.4512 46.8308 11.7048 46.9953 10.9C47.2505 11.4831 48.2955 14.0502 47.144 16.9356C46.774 17.862 46.2659 18.6006 45.7671 19.169C45.1349 19.889 44.3288 20.446 43.4226 20.7995C41.3105 21.6241 39.1984 22.4481 37.0863 23.2727C34.9232 24.117 33.5066 26.1457 33.5066 28.3994V38.0365C33.5066 38.3187 33.4703 38.6003 33.3953 38.8735C33.2267 39.4916 32.9469 40.2597 32.471 41.0769C31.8674 42.113 31.1708 42.8477 30.6504 43.3188H30.6516Z" fill="url(#paint1_linear_368_1539)"/>
<path d="M28.3493 25.9578C28.3493 23.3863 26.7336 21.0726 24.2661 20.1089L17.9098 17.6278C17.1184 17.3405 15.5361 16.6494 14.1416 15.1071C12.6442 13.4506 12.17 11.7042 12.0055 10.8994C11.7503 11.4825 10.7053 14.0495 11.8568 16.935C12.2268 17.8613 12.7349 18.6 13.2337 19.1683C13.8659 19.8883 14.672 20.4454 15.5782 20.7988C17.6903 21.6234 19.8024 22.4474 21.9146 23.272C24.0776 24.1164 25.4943 26.145 25.4943 28.3988V51.0781H28.3498V25.9578H28.3493Z" fill="url(#paint2_linear_368_1539)"/>
<defs>
<radialGradient id="paint0_radial_368_1539" cx="0" cy="0" r="1" gradientUnits="userSpaceOnUse" gradientTransform="translate(29.4531 28.4475) scale(29.0159 28.0323)">
<stop offset="0.29" stop-color="white"/>
<stop offset="0.42" stop-color="#F6F7F6"/>
<stop offset="0.67" stop-color="#ECEEED"/>
<stop offset="1" stop-color="#EAECEB"/>
</radialGradient>
<linearGradient id="paint1_linear_368_1539" x1="39.1627" y1="43.3188" x2="39.1627" y2="10.9" gradientUnits="userSpaceOnUse">
<stop offset="0.24" stop-color="#FACB22"/>
<stop offset="1" stop-color="#FAAE1B"/>
</linearGradient>
<linearGradient id="paint2_linear_368_1539" x1="19.8382" y1="51.0781" x2="19.8382" y2="10.8999" gradientUnits="userSpaceOnUse">
<stop offset="0.24" stop-color="#FACB22"/>
<stop offset="1" stop-color="#FAAE1B"/>
</linearGradient>
</defs>
</svg>
